<?xml version="1.0" encoding="utf-8"?>
<!-- Generator: Adobe Illustrator 27.7.0, SVG Export Plug-In . SVG Version: 6.00 Build 0)  -->
<svg version="1.1" id="Layer_1" xmlns="http://www.w3.org/2000/svg" xmlns:xlink="http://www.w3.org/1999/xlink" x="0px" y="0px"
	 viewBox="0 0 20 20" style="enable-background:new 0 0 20 20;" xml:space="preserve">
<style type="text/css">
	.st0{display:none;fill:#231F20;}
	.st1{fill:#FFFFFF;}
	.st2{display:none;fill:#FFFFFF;}
</style>
<rect y="0" class="st0" width="20" height="20"/>
<polygon class="st1" points="14,8.3 11.7,6.3 11.7,12.2 11.1,13.4 3.7,13.4 0,7 3.7,0.7 11.1,0.7 14.7,7 "/>
<path class="st1" d="M20,14.9l-7.4-6.3l0.1,9.8l2.1-3l2.1,4.4l1.6-0.7l-2.1-4.4L20,14.9z"/>
<polygon class="st2" points="17.5,30.3 15.4,28.5 15.4,33.9 14.8,34.9 8.1,34.9 4.7,29.1 8.1,23.2 14.8,23.2 18.2,29.1 "/>
<path class="st2" d="M23.5,36.9l-7-6l0.1,9.2l2-2.8l2,4.1l1.5-0.7l-2-4.1L23.5,36.9z"/>
<polygon class="st2" points="41.9,8 38.1,4.7 38.2,14.5 37.8,15.1 28.7,15.1 24.2,7.3 28.7,-0.6 37.8,-0.6 42.4,7.3 "/>
<path class="st2" d="M47,13.7l-8-6.8l0.1,10.5l2.3-3.2l2.3,4.7l1.7-0.8l-2.3-4.7L47,13.7z"/>
</svg>
